<?xml version="1.0" encoding="utf-8"?>
<!-- Generator: Adobe Illustrator 26.0.2, SVG Export Plug-In . SVG Version: 6.00 Build 0)  -->
<svg version="1.1" id="图层_1" xmlns="http://www.w3.org/2000/svg" xmlns:xlink="http://www.w3.org/1999/xlink" x="0px" y="0px"
	 viewBox="0 0 247 247" style="enable-background:new 0 0 247 247;" xml:space="preserve">
<style type="text/css">
	.st0{fill:#EDEDED;}
	.st1{fill:none;stroke:#EDEDED;stroke-width:0.109;stroke-linecap:square;stroke-miterlimit:2;}
	.st2{fill-rule:evenodd;clip-rule:evenodd;fill:#707070;}
</style>
<rect x="0.05" y="0.05" class="st0" width="247.08" height="247.08"/>
<rect x="0.05" y="0.05" class="st1" width="247.08" height="247.08"/>
<path class="st1" d="M247.13,247.13"/>
<path class="st2" d="M9.95,217.79l7.44-7.38l-0.84-0.84l-7.38,7.44L9.95,217.79 M18.89,210.41l-8.94,8.94l-2.34-2.34l8.94-8.94
	L18.89,210.41z M27.29,235.13l7.44-7.38l-15.3-15.3l-7.38,7.38L27.29,235.13z M36.23,227.75l-8.94,8.94l-16.8-16.86l8.94-8.94
	L36.23,227.75z"/>
<path class="st2" d="M29.39,235.49l5.7-5.7l-0.48-0.42l-5.64,5.7L29.39,235.49 M36.59,229.79l-7.2,7.26l-1.98-1.98l7.2-7.26
	L36.59,229.79z M12.05,218.15l5.7-5.64l-0.48-0.48l-5.64,5.7L12.05,218.15z M19.31,212.51l-7.26,7.2l-1.98-1.98l7.2-7.2
	L19.31,212.51z M33.71,205.31l0.78-0.78l7.86,7.86l-0.78,0.78L33.71,205.31z M29.45,209.39l0.78-0.78l7.86,7.92l-0.78,0.78
	L29.45,209.39z M19.97,216.17l0.78-0.78l10.68,10.74l-0.72,0.78L19.97,216.17z"/>
<path class="st2" d="M10.31,211.49l0.78-0.78l1.56,1.62l-0.78,0.72L10.31,211.49 M31.19,236.09l4.44-4.5l-0.42-0.42l-4.5,4.44
	L31.19,236.09z M37.19,231.59l-6,6l-1.98-1.98l6-6L37.19,231.59z"/>
<path class="st2" d="M9.35,210.53c0,0.18,0.12,0.36,0.24,0.54c0.12,0.12,0.3,0.18,0.54,0.18c0.18,0,0.36-0.06,0.48-0.18
	c0.18-0.18,0.24-0.36,0.24-0.54c0-0.18-0.06-0.36-0.24-0.54c-0.12-0.12-0.3-0.18-0.48-0.18c-0.24,0-0.42,0.06-0.54,0.18
	C9.47,210.17,9.35,210.35,9.35,210.53 M11.39,210.53c0,0.36-0.12,0.66-0.36,0.9c-0.24,0.24-0.6,0.36-0.9,0.36
	c-0.36,0-0.66-0.12-0.9-0.36c-0.3-0.24-0.42-0.54-0.42-0.9c0-0.36,0.12-0.66,0.42-0.9c0.24-0.24,0.54-0.36,0.9-0.36
	c0.3,0,0.66,0.12,0.9,0.36C11.27,209.87,11.39,210.17,11.39,210.53z M37.43,238.67l0.78-0.78l0.78,0.72l-0.78,0.78L37.43,238.67z
	 M33.41,234.59l0.78-0.78l1.56,1.62l-0.78,0.78L33.41,234.59z"/>
<path class="st2" d="M15.89,230.09l2.52-2.58l0.78,0.78l-2.58,2.58L15.89,230.09 M26.69,218.99l2.58-2.58l0.78,0.78l-2.58,2.58
	L26.69,218.99z M35.27,240.47l4.74-4.8c-0.6-0.54-1.38-0.84-2.22-0.84c-0.9,0-1.74,0.36-2.4,0.96c-0.66,0.66-1.02,1.5-1.02,2.4
	C34.37,239.03,34.73,239.87,35.27,240.47z M40.79,235.67l-5.52,5.58l-0.24-0.24c-0.78-0.78-1.2-1.74-1.2-2.82
	c0-1.02,0.42-2.04,1.2-2.76c0.72-0.72,1.68-1.14,2.76-1.14c1.02,0,2.04,0.42,2.76,1.14c0.06,0,0.06,0,0.06,0.06L40.79,235.67z"/>
<path class="st2" d="M33.77,220.13l11.22-11.28l-7.08-7.14l-11.28,11.28L33.77,220.13 M46.55,208.85l-12.78,12.78l-8.7-8.64
	l12.84-12.78L46.55,208.85z"/>
<path class="st2" d="M8.39,230.51l0.78-0.78l7.86,7.86l-0.72,0.78L8.39,230.51 M4.43,234.89l0.78-0.78l7.86,7.92l-0.78,0.72
	L4.43,234.89z M30.95,217.55l12.06-12.06l0.78,0.78l-12.06,12.06L30.95,217.55z M27.95,215.09l12-12.06l0.78,0.78l-12,12.06
	L27.95,215.09z"/>
<path class="st2" d="M8.75,245.57l11.22-11.28l-7.08-7.08L1.61,238.49L8.75,245.57 M21.53,234.29L8.75,247.13l-8.7-8.64l12.84-12.84
	L21.53,234.29z"/>
<path class="st2" d="M5.93,242.99l12.06-12l0.78,0.78l-12.06,12L5.93,242.99 M2.93,240.53l12-12l0.78,0.78l-12,12L2.93,240.53z"/>
<path class="st2" d="M79.25,175.19l-7.44-7.38l-0.78,0.84l7.38,7.38L79.25,175.19 M71.81,166.25l8.94,8.94l-2.34,2.4l-8.94-8.94
	L71.81,166.25z M96.59,157.91l-7.44-7.44l-15.24,15.3l7.38,7.38L96.59,157.91z M89.15,148.97l8.94,8.94l-16.8,16.8l-8.94-8.94
	L89.15,148.97z"/>
<path class="st2" d="M96.89,155.81l-5.64-5.7l-0.42,0.48l5.64,5.64L96.89,155.81 M91.25,148.61l7.2,7.2l-1.98,1.98l-7.2-7.2
	L91.25,148.61z M79.61,173.15l-5.7-5.7l-0.42,0.42l5.64,5.7L79.61,173.15z M73.91,165.89l7.2,7.26l-1.98,1.98l-7.2-7.26
	L73.91,165.89z M66.71,151.49l-0.78-0.78l7.92-7.86l0.78,0.78L66.71,151.49z M70.85,155.75l-0.78-0.78l7.92-7.86l0.72,0.78
	L70.85,155.75z M77.63,165.23l-0.78-0.78l10.74-10.74l0.72,0.78L77.63,165.23z"/>
<path class="st2" d="M72.95,174.89l-0.78-0.78l1.56-1.56l0.78,0.78L72.95,174.89 M97.49,154.01l-4.44-4.44l-0.48,0.42l4.5,4.5
	L97.49,154.01z M93.05,148.01l6,6l-1.98,1.98l-6.06-6L93.05,148.01z"/>
<path class="st2" d="M71.99,175.79c0.18,0.06,0.36-0.06,0.48-0.18c0.18-0.12,0.24-0.3,0.24-0.54c0-0.18-0.06-0.36-0.24-0.48
	c-0.12-0.18-0.3-0.24-0.48-0.24c-0.24,0-0.42,0.06-0.54,0.24c-0.12,0.12-0.24,0.3-0.24,0.48c0,0.24,0.12,0.42,0.24,0.54
	S71.75,175.85,71.99,175.79 M71.99,173.81c0.3,0,0.66,0.12,0.9,0.36c0.24,0.24,0.36,0.6,0.36,0.9c0,0.36-0.12,0.66-0.36,0.9
	c-0.24,0.24-0.6,0.42-0.9,0.42c-0.36,0-0.66-0.18-0.9-0.42c-0.3-0.24-0.42-0.54-0.42-0.9c0-0.3,0.12-0.66,0.42-0.9
	C71.33,173.93,71.63,173.81,71.99,173.81z M100.07,147.71l-0.78-0.72l0.78-0.78l0.78,0.78L100.07,147.71z M96.05,151.79l-0.78-0.78
	l1.56-1.56l0.78,0.78L96.05,151.79z"/>
<path class="st2" d="M91.55,169.31l-2.58-2.52l0.78-0.78l2.58,2.52L91.55,169.31 M80.39,158.45l-2.52-2.52l0.72-0.78l2.58,2.58
	L80.39,158.45z M101.87,149.93l-4.74-4.8c-0.54,0.66-0.9,1.44-0.9,2.28c0,0.9,0.36,1.74,1.02,2.4s1.5,0.96,2.4,0.96
	C100.49,150.77,101.27,150.47,101.87,149.93z M97.13,144.41l5.52,5.52l-0.18,0.24h-0.06c-0.72,0.78-1.74,1.14-2.76,1.14
	c-1.08,0-2.04-0.36-2.76-1.14c-0.78-0.72-1.2-1.74-1.2-2.76c0-1.08,0.42-2.04,1.2-2.76c0-0.06,0-0.06,0-0.06L97.13,144.41z"/>
<path class="st2" d="M81.53,151.43l-11.28-11.28l-7.08,7.14l11.28,11.28L81.53,151.43 M70.25,138.65l12.84,12.78l-8.64,8.7
	l-12.84-12.84L70.25,138.65z"/>
<path class="st2" d="M91.91,176.81l-0.78-0.78l7.92-7.92l0.78,0.78L91.91,176.81 M96.35,180.77l-0.78-0.78l7.86-7.86l0.78,0.78
	L96.35,180.77z M78.95,154.25l-12-12.06l0.78-0.78l12,12.06L78.95,154.25z M76.49,157.25l-12-12.06l0.72-0.72l12.06,12L76.49,157.25
	z"/>
<path class="st2" d="M107.03,176.45l-11.28-11.28l-7.14,7.14l11.28,11.28L107.03,176.45 M95.75,163.67l12.84,12.78l-8.7,8.7
	l-12.78-12.84L95.75,163.67z"/>
<path class="st2" d="M104.45,179.27l-12.06-12.06l0.78-0.78l12.06,12.06L104.45,179.27 M101.99,182.27l-12.06-12.06l0.78-0.72
	l12.06,12L101.99,182.27z"/>
<path class="st2" d="M135.11,232.25l-2.7-10.08l-1.08,0.3l2.7,10.08L135.11,232.25 M133.19,220.85l3.3,12.18l-3.24,0.9l-3.24-12.24
	L133.19,220.85z M158.81,225.95l-2.7-10.14l-20.88,5.64l2.7,10.08L158.81,225.95z M156.89,214.49l3.24,12.24l-22.98,6.12l-3.3-12.18
	L156.89,214.49z"/>
<path class="st2" d="M160.13,224.33l-2.04-7.74l-0.6,0.12l2.04,7.74L160.13,224.33 M158.87,215.21l2.64,9.9l-2.76,0.72l-2.64-9.9
	L158.87,215.21z M136.49,230.63l-2.1-7.74l-0.6,0.18l2.1,7.74L136.49,230.63z M135.17,221.57l2.64,9.84l-2.7,0.72l-2.64-9.84
	L135.17,221.57z M136.13,205.49l-0.24-1.08l10.74-2.88l0.3,1.08L136.13,205.49z M137.57,211.25l-0.24-1.08l10.74-2.88l0.3,1.08
	L137.57,211.25z M138.71,222.83l-0.3-1.08l14.64-3.9l0.3,1.02L138.71,222.83z"/>
<path class="st2" d="M129.83,228.83l-0.3-1.02l2.16-0.6l0.3,1.08L129.83,228.83 M161.57,223.07l-1.68-6.12l-0.6,0.18l1.62,6.12
	L161.57,223.07z M160.67,215.63l2.22,8.22l-2.7,0.72l-2.22-8.22L160.67,215.63z"/>
<path class="st2" d="M128.51,229.19c0.18,0.06,0.36,0.12,0.6,0.06c0.18-0.06,0.3-0.18,0.42-0.36c0.12-0.18,0.12-0.36,0.06-0.54
	c-0.06-0.18-0.18-0.36-0.3-0.48c-0.18-0.06-0.42-0.12-0.6-0.06c-0.18,0.06-0.36,0.18-0.42,0.36c-0.12,0.18-0.12,0.36-0.06,0.54
	C128.21,228.89,128.33,229.07,128.51,229.19 M129.53,227.45c0.3,0.12,0.54,0.42,0.6,0.72c0.12,0.36,0.06,0.72-0.12,1.02
	c-0.18,0.3-0.48,0.48-0.78,0.6c-0.36,0.06-0.66,0-0.96-0.18c-0.3-0.12-0.54-0.42-0.6-0.72c-0.12-0.36-0.06-0.72,0.12-1.02
	c0.18-0.3,0.42-0.48,0.78-0.6C128.87,227.21,129.23,227.27,129.53,227.45z M166.91,218.93l-0.3-1.08l1.02-0.24l0.3,1.02
	L166.91,218.93z M161.39,220.37l-0.3-1.02l2.16-0.6l0.3,1.08L161.39,220.37z"/>
<path class="st2" d="M148.73,233.33l-0.96-3.48l1.08-0.3l0.9,3.48L148.73,233.33 M144.53,218.39l-0.96-3.54l1.08-0.24l0.9,3.48
	L144.53,218.39z M167.39,221.69l-1.74-6.48c-0.78,0.24-1.44,0.78-1.86,1.5c-0.48,0.78-0.6,1.68-0.36,2.58
	c0.24,0.84,0.78,1.56,1.56,2.04C165.77,221.75,166.55,221.87,167.39,221.69z M166.01,214.49l2.04,7.62l-0.3,0.06
	c-1.02,0.3-2.1,0.18-3-0.36c-0.9-0.54-1.56-1.38-1.86-2.4c-0.24-1.02-0.12-2.04,0.42-3c0.54-0.9,1.38-1.56,2.4-1.8c0,0,0,0,0.06,0
	L166.01,214.49z"/>
<path class="st2" d="M149.03,212.87l-4.14-15.42l-9.72,2.58l4.14,15.42L149.03,212.87 M145.67,196.13l4.68,17.46l-11.82,3.18
	l-4.68-17.46L145.67,196.13z"/>
<path class="st2" d="M145.31,239.99l-0.3-1.08l10.8-2.88l0.3,1.08L145.31,239.99 M147.17,245.63l-0.3-1.08l10.74-2.88l0.3,1.08
	L147.17,245.63z M145.37,213.95l-4.38-16.44l1.02-0.3l4.44,16.5L145.37,213.95z M141.77,215.39l-4.44-16.5l1.08-0.24l4.38,16.44
	L141.77,215.39z"/>
<path class="st2" d="M158.57,247.25l-4.14-15.42l-9.72,2.64l4.14,15.36L158.57,247.25 M155.21,230.51l4.68,17.52l-11.82,3.18
	l-4.68-17.52L155.21,230.51z"/>
<path class="st2" d="M154.97,248.39l-4.44-16.44l1.08-0.3l4.38,16.44L154.97,248.39 M151.31,249.77l-4.44-16.44l1.08-0.3l4.38,16.44
	L151.31,249.77z"/>
<path class="st2" d="M8.81,101.69l2.76-10.08l-1.14-0.3l-2.7,10.08L8.81,101.69 M12.89,90.83l-3.3,12.18l-3.18-0.84l3.24-12.18
	L12.89,90.83z M32.51,108.05l2.7-10.08l-20.88-5.64l-2.7,10.14L32.51,108.05z M36.53,97.19l-3.24,12.18l-22.98-6.12l3.24-12.24
	L36.53,97.19z"/>
<path class="st2" d="M34.49,107.33l2.1-7.74l-0.6-0.18l-2.1,7.74L34.49,107.33 M37.91,98.81l-2.64,9.84l-2.7-0.72l2.64-9.84
	L37.91,98.81z M10.85,100.97l2.04-7.74l-0.6-0.18l-2.04,7.74L10.85,100.97z M14.21,92.45l-2.64,9.84l-2.7-0.72l2.64-9.84
	L14.21,92.45z M23.09,79.01l0.3-1.08l10.8,2.88l-0.3,1.08L23.09,79.01z M21.47,84.71l0.3-1.08l10.8,2.88l-0.3,1.08L21.47,84.71z
	 M16.67,95.33l0.3-1.08l14.64,3.96l-0.3,1.02L16.67,95.33z"/>
<path class="st2" d="M5.93,96.05l0.3-1.02l2.16,0.6l-0.3,1.02L5.93,96.05 M36.35,106.91l1.62-6.12l-0.6-0.12l-1.68,6.12
	L36.35,106.91z M39.29,100.07l-2.22,8.22l-2.7-0.78l2.22-8.22L39.29,100.07z"/>
<path class="st2" d="M4.67,95.69c0.12,0.18,0.24,0.3,0.48,0.36c0.18,0.06,0.36,0,0.54-0.06c0.18-0.12,0.3-0.24,0.36-0.48
	c0-0.18,0-0.36-0.12-0.54c-0.06-0.18-0.24-0.3-0.42-0.36c-0.18,0-0.42,0-0.54,0.12c-0.18,0.06-0.3,0.24-0.36,0.42
	S4.61,95.57,4.67,95.69 M6.41,94.73c0.18,0.24,0.24,0.6,0.12,0.96c-0.06,0.3-0.3,0.6-0.6,0.78s-0.6,0.18-0.96,0.12
	c-0.3-0.12-0.6-0.3-0.78-0.6c-0.18-0.3-0.18-0.66-0.12-0.96c0.12-0.36,0.3-0.6,0.6-0.78c0.3-0.18,0.66-0.24,0.96-0.12
	C5.99,94.19,6.23,94.43,6.41,94.73z M43.07,106.01l0.24-1.02l1.02,0.24l-0.24,1.08L43.07,106.01z M37.55,104.51l0.24-1.02l2.16,0.6
	l-0.24,1.02L37.55,104.51z"/>
<path class="st2" d="M20.09,109.43l0.96-3.54l1.02,0.3l-0.96,3.48L20.09,109.43 M23.93,94.37l0.9-3.54l1.08,0.3l-0.96,3.48
	L23.93,94.37z M42.05,108.71l1.74-6.54c-0.78-0.18-1.62-0.06-2.34,0.36c-0.78,0.48-1.38,1.2-1.62,2.04c-0.24,0.9-0.12,1.8,0.36,2.58
	C40.61,107.87,41.27,108.41,42.05,108.71z M44.45,101.75l-1.98,7.62l-0.3-0.06l-0.06-0.06c-1.02-0.24-1.86-0.9-2.4-1.8
	s-0.66-1.98-0.36-3c0.24-1.02,0.9-1.86,1.8-2.4c0.9-0.48,1.98-0.66,3-0.36c0,0,0,0,0.06,0L44.45,101.75z"/>
<path class="st2" d="M30.59,91.79l4.08-15.36l-9.72-2.64l-4.08,15.42L30.59,91.79 M36.05,75.65l-4.68,17.52l-11.88-3.18l4.74-17.52
	L36.05,75.65z"/>
<path class="st2" d="M13.79,113.45l0.3-1.02l10.8,2.88l-0.3,1.08L13.79,113.45 M12.59,119.27l0.24-1.02l10.8,2.88l-0.3,1.02
	L12.59,119.27z M26.87,91.01l4.44-16.5l1.02,0.3l-4.38,16.44L26.87,91.01z M23.03,90.35l4.38-16.44l1.08,0.3l-4.44,16.44
	L23.03,90.35z"/>
<path class="st2" d="M21.65,126.41l4.14-15.42l-9.72-2.58l-4.14,15.36L21.65,126.41 M27.11,110.21l-4.68,17.52l-11.82-3.18
	l4.68-17.52L27.11,110.21z"/>
<path class="st2" d="M17.93,125.57l4.44-16.44l1.02,0.24l-4.38,16.44L17.93,125.57 M14.09,124.91l4.44-16.44l1.02,0.3l-4.38,16.44
	L14.09,124.91z"/>
<path class="st2" d="M71.75,32.45l7.38-7.38l-0.78-0.78l-7.38,7.38L71.75,32.45 M80.69,25.07l-8.94,8.94l-2.34-2.34l8.94-8.94
	L80.69,25.07z M89.09,49.79l7.38-7.38l-15.3-15.3l-7.38,7.44L89.09,49.79z M98.03,42.41l-8.94,8.94l-16.86-16.8l8.94-8.94
	L98.03,42.41z"/>
<path class="st2" d="M91.19,50.15l5.64-5.64l-0.42-0.48l-5.7,5.7L91.19,50.15 M98.39,44.51l-7.2,7.2l-2.04-1.98l7.26-7.2
	L98.39,44.51z M73.85,32.81l5.64-5.64l-0.42-0.42l-5.7,5.64L73.85,32.81z M81.05,27.17l-7.2,7.2l-1.98-1.98l7.2-7.2L81.05,27.17z
	 M95.45,19.97l0.78-0.78l7.92,7.86l-0.78,0.78L95.45,19.97z M91.19,24.11l0.78-0.78l7.92,7.86l-0.78,0.78L91.19,24.11z M81.71,30.83
	l0.78-0.72l10.74,10.68l-0.78,0.78L81.71,30.83z"/>
<path class="st2" d="M72.05,26.15l0.78-0.78l1.62,1.62l-0.78,0.78L72.05,26.15 M92.93,50.75l4.5-4.5l-0.48-0.42l-4.44,4.44
	L92.93,50.75z M98.93,46.25l-6,6.06l-1.98-2.04l6-6L98.93,46.25z"/>
<path class="st2" d="M71.15,25.19c0,0.24,0.06,0.42,0.24,0.54c0.12,0.12,0.3,0.24,0.48,0.24c0.18,0,0.42-0.12,0.54-0.24
	s0.18-0.3,0.18-0.54c0-0.18-0.06-0.36-0.18-0.48c-0.12-0.18-0.36-0.24-0.54-0.24c-0.18,0-0.36,0.06-0.48,0.24
	C71.21,24.83,71.15,25.01,71.15,25.19 M73.19,25.19c0,0.36-0.18,0.66-0.42,0.9c-0.24,0.24-0.54,0.42-0.9,0.42
	c-0.3,0-0.66-0.18-0.9-0.42c-0.24-0.24-0.36-0.54-0.36-0.9c0-0.3,0.12-0.66,0.36-0.9c0.24-0.24,0.6-0.36,0.9-0.36
	c0.36,0,0.66,0.12,0.9,0.36C73.01,24.53,73.19,24.89,73.19,25.19z M99.23,53.33l0.78-0.78l0.72,0.72l-0.78,0.78L99.23,53.33z
	 M95.15,49.25l0.78-0.72l1.62,1.56l-0.78,0.78L95.15,49.25z"/>
<path class="st2" d="M77.63,44.75l2.58-2.52l0.78,0.78l-2.58,2.52L77.63,44.75 M88.49,33.65l2.58-2.58l0.72,0.78l-2.52,2.58
	L88.49,33.65z M97.01,55.13l4.8-4.8c-0.6-0.54-1.38-0.84-2.22-0.84c-0.96,0-1.8,0.36-2.4,1.02c-0.66,0.6-1.02,1.5-1.02,2.4
	C96.17,53.75,96.47,54.53,97.01,55.13z M102.59,50.33l-5.58,5.58l-0.18-0.18c0-0.06-0.06-0.06-0.06-0.06
	c-0.72-0.72-1.14-1.74-1.14-2.76c0-1.08,0.42-2.04,1.14-2.82c0.78-0.72,1.74-1.14,2.82-1.14c1.02,0,2.04,0.42,2.76,1.14
	c0,0,0,0.06,0.06,0.06L102.59,50.33z"/>
<path class="st2" d="M95.51,34.79l11.28-11.28l-7.14-7.14L88.43,27.65L95.51,34.79 M108.35,23.51L95.51,36.35l-8.64-8.7l12.78-12.78
	L108.35,23.51z"/>
<path class="st2" d="M70.19,45.17l0.78-0.78l7.86,7.86l-0.78,0.78L70.19,45.17 M66.17,49.55l0.78-0.78l7.92,7.92l-0.78,0.78
	L66.17,49.55z M92.75,32.21l12-12.06l0.78,0.78l-12,12.06L92.75,32.21z M89.69,29.75l12.06-12.06l0.78,0.78L90.47,30.53L89.69,29.75
	z"/>
<path class="st2" d="M70.49,60.29l11.28-11.28l-7.14-7.14L63.41,53.15L70.49,60.29 M83.33,49.01L70.49,61.79l-8.64-8.64l12.78-12.84
	L83.33,49.01z"/>
<path class="st2" d="M67.73,57.71l12.06-12.06l0.72,0.78l-12,12.06L67.73,57.71 M64.67,55.25l12.06-12.06l0.78,0.78l-12.06,12
	L64.67,55.25z"/>
<path class="st2" d="M195.29,156.05l7.44-7.44l-0.84-0.78l-7.38,7.38L195.29,156.05 M204.23,148.61l-8.94,8.94l-2.34-2.34l8.94-8.94
	L204.23,148.61z M212.63,173.33l7.38-7.38l-15.24-15.3l-7.44,7.44L212.63,173.33z M221.57,165.95l-8.94,8.94l-16.8-16.8l8.94-8.94
	L221.57,165.95z"/>
<path class="st2" d="M214.73,173.69l5.64-5.64l-0.42-0.48l-5.7,5.7L214.73,173.69 M221.93,168.05l-7.2,7.2l-1.98-1.98l7.2-7.2
	L221.93,168.05z M197.39,156.41l5.7-5.7l-0.48-0.42l-5.64,5.64L197.39,156.41z M204.59,150.71l-7.2,7.2l-1.98-1.98l7.2-7.2
	L204.59,150.71z M218.99,143.51l0.78-0.78l7.92,7.92l-0.78,0.72L218.99,143.51z M214.79,147.65l0.72-0.78l7.92,7.86l-0.78,0.78
	L214.79,147.65z M205.31,154.43l0.72-0.78l10.74,10.68l-0.78,0.78L205.31,154.43z"/>
<path class="st2" d="M195.59,149.69l0.78-0.72l1.62,1.56l-0.78,0.78L195.59,149.69 M216.47,174.29l4.5-4.5l-0.42-0.42l-4.5,4.5
	L216.47,174.29z M222.53,169.79l-6.06,6.06l-1.98-1.98l6.06-6.06L222.53,169.79z"/>
<path class="st2" d="M194.69,148.73c0,0.24,0.06,0.42,0.24,0.54c0.12,0.12,0.3,0.24,0.48,0.24c0.24,0,0.42-0.12,0.54-0.24
	s0.24-0.3,0.24-0.54c0-0.18-0.12-0.36-0.24-0.48c-0.12-0.18-0.3-0.24-0.54-0.24c-0.18,0-0.36,0.06-0.48,0.24
	C194.75,148.37,194.69,148.55,194.69,148.73 M196.73,148.73c0,0.36-0.12,0.72-0.42,0.96c-0.24,0.24-0.54,0.36-0.9,0.36
	c-0.3,0-0.66-0.12-0.9-0.36c-0.24-0.24-0.36-0.6-0.36-0.96c0-0.3,0.12-0.66,0.36-0.9c0.24-0.24,0.6-0.36,0.9-0.36
	c0.36,0,0.66,0.12,0.9,0.36C196.61,148.07,196.73,148.43,196.73,148.73z M222.77,176.87l0.78-0.78l0.72,0.78l-0.72,0.72
	L222.77,176.87z M218.75,172.85l0.78-0.78l1.56,1.56l-0.78,0.78L218.75,172.85z"/>
<path class="st2" d="M201.17,168.35l2.58-2.58l0.78,0.78l-2.58,2.52L201.17,168.35 M212.03,157.19l2.58-2.58l0.78,0.78l-2.58,2.58
	L212.03,157.19z M220.61,178.67l4.74-4.74c-0.6-0.6-1.38-0.9-2.22-0.9c-0.9,0-1.8,0.36-2.4,1.02c-0.66,0.66-1.02,1.5-1.02,2.4
	C219.71,177.29,220.01,178.07,220.61,178.67z M226.13,173.93l-5.52,5.52l-0.24-0.18c0,0,0-0.06-0.06-0.06
	c-0.72-0.72-1.14-1.74-1.14-2.76c0-1.08,0.42-2.04,1.14-2.82c0.78-0.72,1.74-1.14,2.82-1.14c1.02,0,2.04,0.42,2.76,1.14
	c0,0.06,0.06,0.06,0.06,0.06L226.13,173.93z"/>
<path class="st2" d="M219.05,158.33l11.28-11.28l-7.08-7.08l-11.28,11.22L219.05,158.33 M231.89,147.05l-12.84,12.84l-8.64-8.7
	l12.84-12.78L231.89,147.05z"/>
<path class="st2" d="M193.73,168.71l0.78-0.78l7.86,7.92l-0.78,0.72L193.73,168.71 M189.77,173.09l0.72-0.72l7.92,7.86l-0.78,0.78
	L189.77,173.09z M216.29,155.75l12.06-12l0.78,0.72l-12.06,12.06L216.29,155.75z M213.29,153.29l12-12.06l0.78,0.78l-12.06,12.06
	L213.29,153.29z"/>
<path class="st2" d="M194.03,183.83l11.28-11.28l-7.08-7.14l-11.28,11.28L194.03,183.83 M206.87,172.55l-12.84,12.78l-8.64-8.64
	l12.84-12.78L206.87,172.55z"/>
<path class="st2" d="M191.27,181.25l12.06-12.06l0.78,0.78l-12.06,12.06L191.27,181.25 M188.27,178.79l12-12.06l0.78,0.78
	l-12.06,12.06L188.27,178.79z"/>
<path class="st2" d="M133.55,94.25l7.38-7.38l-0.78-0.84l-7.44,7.44L133.55,94.25 M142.49,86.87l-8.94,8.94l-2.34-2.34l8.94-8.94
	L142.49,86.87z M150.89,111.59l7.38-7.38l-15.3-15.3l-7.38,7.38L150.89,111.59z M159.83,104.21l-8.94,8.94l-16.86-16.86l8.94-8.94
	L159.83,104.21z"/>
<path class="st2" d="M152.93,111.95l5.7-5.7l-0.48-0.42l-5.64,5.64L152.93,111.95 M160.13,106.25l-7.2,7.2l-1.98-1.98l7.2-7.2
	L160.13,106.25z M135.59,94.61l5.7-5.64l-0.42-0.48l-5.7,5.7L135.59,94.61z M142.85,88.97l-7.26,7.2l-1.98-1.98l7.26-7.26
	L142.85,88.97z M157.25,81.71l0.78-0.72l7.86,7.86l-0.78,0.78L157.25,81.71z M152.99,85.85l0.78-0.78l7.86,7.92l-0.78,0.78
	L152.99,85.85z M143.51,92.63l0.78-0.78l10.74,10.74l-0.78,0.78L143.51,92.63z"/>
<path class="st2" d="M133.85,87.95l0.78-0.78l1.56,1.56l-0.78,0.78L133.85,87.95 M154.73,112.49l4.44-4.44l-0.42-0.48l-4.5,4.5
	L154.73,112.49z M160.73,108.05l-6,6l-1.98-1.98l6-6L160.73,108.05z"/>
<path class="st2" d="M132.95,86.99c0,0.18,0.06,0.36,0.18,0.54c0.12,0.12,0.36,0.18,0.54,0.18c0.18,0,0.36-0.06,0.48-0.18
	c0.18-0.18,0.24-0.36,0.24-0.54c0-0.18-0.06-0.36-0.24-0.54c-0.12-0.12-0.3-0.18-0.48-0.18c-0.18,0-0.42,0.06-0.54,0.18
	S132.95,86.81,132.95,86.99 M134.93,86.99c0,0.36-0.12,0.66-0.36,0.9c-0.24,0.24-0.6,0.36-0.9,0.36c-0.36,0-0.66-0.12-0.9-0.36
	c-0.24-0.24-0.42-0.54-0.42-0.9c0-0.36,0.18-0.66,0.42-0.9c0.24-0.24,0.54-0.36,0.9-0.36c0.3,0,0.66,0.12,0.9,0.36
	C134.81,86.33,134.93,86.63,134.93,86.99z M161.03,115.07l0.72-0.72l0.78,0.72l-0.78,0.78L161.03,115.07z M156.95,111.05l0.78-0.78
	l1.56,1.62l-0.78,0.72L156.95,111.05z"/>
<path class="st2" d="M139.43,106.55l2.52-2.58l0.78,0.78l-2.52,2.58L139.43,106.55 M150.29,95.39l2.52-2.52l0.78,0.78l-2.58,2.52
	L150.29,95.39z M158.81,116.93l4.8-4.8c-0.66-0.54-1.44-0.84-2.28-0.84c-0.9,0-1.74,0.36-2.4,0.96c-0.6,0.66-0.96,1.5-0.96,2.4
	C157.97,115.49,158.27,116.27,158.81,116.93z M164.33,112.13l-5.52,5.58l-0.24-0.24c-0.78-0.78-1.14-1.74-1.14-2.82
	c0-1.02,0.36-2.04,1.14-2.76c0.72-0.78,1.74-1.14,2.76-1.14c1.08,0,2.04,0.36,2.76,1.14c0.06,0,0.06,0,0.06,0L164.33,112.13z"/>
<path class="st2" d="M157.31,96.53l11.28-11.22l-7.14-7.14l-11.28,11.28L157.31,96.53 M170.09,85.31l-12.78,12.78l-8.7-8.64
	l12.84-12.84L170.09,85.31z"/>
<path class="st2" d="M131.93,106.91l0.78-0.78l7.92,7.92l-0.78,0.78L131.93,106.91 M127.97,111.35l0.78-0.78l7.86,7.86l-0.72,0.78
	L127.97,111.35z M154.49,94.01l12.06-12.06l0.78,0.78l-12.06,12L154.49,94.01z M151.49,91.55l12.06-12.06l0.72,0.78l-12,12
	L151.49,91.55z"/>
<path class="st2" d="M132.29,122.03l11.28-11.28l-7.14-7.08l-11.28,11.22L132.29,122.03 M145.07,110.75l-12.78,12.84l-8.7-8.7
	l12.84-12.78L145.07,110.75z"/>
<path class="st2" d="M129.47,119.45l12.06-12l0.78,0.72l-12.06,12.06L129.47,119.45 M126.47,116.99l12.06-12.06l0.78,0.78
	l-12.06,12.06L126.47,116.99z"/>
<path class="st2" d="M210.23,52.79l-10.08-2.7l-0.3,1.08l10.08,2.76L210.23,52.79 M199.37,48.77l12.18,3.24l-0.84,3.24l-12.18-3.3
	L199.37,48.77z M216.59,29.15l-10.14-2.76l-5.58,20.94l10.14,2.7L216.59,29.15z M205.73,25.07l12.18,3.3l-6.18,22.98l-12.18-3.3
	L205.73,25.07z"/>
<path class="st2" d="M215.87,27.17l-7.8-2.1l-0.12,0.6l7.74,2.1L215.87,27.17 M207.35,23.75l9.84,2.64l-0.72,2.7l-9.84-2.64
	L207.35,23.75z M209.51,50.81l-7.74-2.1l-0.18,0.66l7.74,2.04L209.51,50.81z M200.99,47.39l9.84,2.64l-0.72,2.7l-9.84-2.64
	L200.99,47.39z M187.55,38.51l-1.08-0.24l2.88-10.8l1.08,0.3L187.55,38.51z M193.25,40.13l-1.08-0.24l2.88-10.8l1.08,0.3
	L193.25,40.13z M203.87,44.99l-1.08-0.3l3.9-14.64l1.08,0.3L203.87,44.99z"/>
<path class="st2" d="M204.59,55.67l-1.02-0.24l0.6-2.16l1.02,0.24L204.59,55.67 M215.45,25.31l-6.12-1.62l-0.12,0.6l6.06,1.62
	L215.45,25.31z M208.55,22.37l8.22,2.16l-0.72,2.76l-8.22-2.22L208.55,22.37z"/>
<path class="st2" d="M204.23,56.99c0.18-0.12,0.3-0.3,0.36-0.48c0.06-0.18,0-0.36-0.06-0.54c-0.12-0.18-0.3-0.3-0.48-0.36
	c-0.18-0.06-0.36,0-0.54,0.06c-0.18,0.12-0.3,0.3-0.36,0.48s0,0.36,0.12,0.54c0.06,0.18,0.24,0.3,0.42,0.36
	S204.05,57.05,204.23,56.99 M203.21,55.19c0.3-0.12,0.66-0.18,1.02-0.12c0.3,0.12,0.6,0.3,0.78,0.6c0.12,0.3,0.18,0.66,0.12,0.96
	c-0.12,0.36-0.3,0.66-0.6,0.78c-0.3,0.18-0.66,0.24-0.96,0.18c-0.36-0.12-0.6-0.3-0.78-0.6c-0.18-0.3-0.24-0.66-0.12-1.02
	C202.73,55.67,202.97,55.37,203.21,55.19z M214.55,18.59l-1.02-0.3l0.24-1.02l1.08,0.3L214.55,18.59z M213.05,24.11l-1.02-0.3
	l0.54-2.16l1.08,0.3L213.05,24.11z"/>
<path class="st2" d="M217.91,41.57l-3.48-0.96l0.3-1.02l3.48,0.9L217.91,41.57 M202.91,37.73l-3.54-0.96l0.3-1.02l3.48,0.9
	L202.91,37.73z M217.25,19.61l-6.54-1.8c-0.18,0.84-0.06,1.68,0.36,2.4c0.48,0.78,1.2,1.32,2.04,1.56c0.9,0.24,1.8,0.12,2.58-0.3
	C216.41,21.05,216.95,20.39,217.25,19.61z M210.29,17.15l7.62,2.04l-0.06,0.3c-0.06,0-0.06,0-0.06,0.06c-0.24,1.02-0.9,1.86-1.8,2.4
	c-0.9,0.48-1.98,0.66-3,0.36c-1.02-0.24-1.86-0.9-2.4-1.8c-0.54-0.96-0.66-1.98-0.36-3c0-0.06,0-0.06,0-0.06L210.29,17.15z"/>
<path class="st2" d="M200.33,31.07l-15.36-4.14l-2.64,9.72l15.42,4.14L200.33,31.07 M184.19,25.61l17.52,4.68l-3.18,11.82
	l-17.52-4.68L184.19,25.61z"/>
<path class="st2" d="M221.99,47.81l-1.02-0.24l2.88-10.8l1.02,0.3L221.99,47.81 M227.81,49.07l-1.08-0.3l2.94-10.74l1.02,0.24
	L227.81,49.07z M199.49,34.79l-16.44-4.44l0.3-1.02l16.44,4.38L199.49,34.79z M198.89,38.63l-16.44-4.44l0.3-1.02l16.44,4.38
	L198.89,38.63z"/>
<path class="st2" d="M234.95,40.01l-15.42-4.14l-2.58,9.72l15.36,4.14L234.95,40.01 M218.75,34.55l17.52,4.68l-3.18,11.82
	l-17.52-4.68L218.75,34.55z"/>
<path class="st2" d="M234.11,43.67l-16.5-4.38l0.3-1.08l16.44,4.44L234.11,43.67 M233.45,47.57l-16.44-4.44l0.3-1.02l16.44,4.38
	L233.45,47.57z"/>
<path class="st2" d="M9.95-29.29l7.44-7.38l-0.84-0.84l-7.38,7.38L9.95-29.29 M18.89-36.67l-8.94,8.94l-2.34-2.4l8.94-8.94
	L18.89-36.67z M27.29-11.95l7.44-7.44l-15.3-15.24l-7.38,7.38L27.29-11.95z M36.23-19.39l-8.94,8.94l-16.8-16.8l8.94-8.94
	L36.23-19.39z"/>
<path class="st2" d="M29.39-11.59l5.7-5.7l-0.48-0.42l-5.64,5.64L29.39-11.59 M36.59-17.29l-7.2,7.2l-1.98-1.98l7.2-7.2L36.59-17.29
	z M12.05-28.93l5.7-5.7l-0.48-0.42l-5.64,5.64L12.05-28.93z M19.31-34.63l-7.26,7.26l-1.98-2.04l7.2-7.2L19.31-34.63z M33.71-41.83
	l0.78-0.78l7.86,7.92l-0.78,0.78L33.71-41.83z M29.45-37.69l0.78-0.78l7.86,7.92l-0.78,0.72L29.45-37.69z M19.97-30.91l0.78-0.78
	l10.68,10.74l-0.72,0.78L19.97-30.91z"/>
<path class="st2" d="M10.31-35.59l0.78-0.78l1.56,1.56l-0.78,0.78L10.31-35.59 M31.19-11.05l4.44-4.44l-0.42-0.48l-4.5,4.5
	L31.19-11.05z M37.19-15.49l-6,6l-1.98-1.98l6-6L37.19-15.49z"/>
<path class="st2" d="M9.35-36.55c0,0.18,0.12,0.36,0.24,0.48c0.12,0.18,0.3,0.24,0.54,0.24c0.18,0,0.36-0.06,0.48-0.24
	c0.18-0.12,0.24-0.3,0.24-0.48c0-0.24-0.06-0.42-0.24-0.54c-0.12-0.12-0.3-0.24-0.48-0.24c-0.24,0-0.42,0.12-0.54,0.24
	C9.47-36.97,9.35-36.79,9.35-36.55 M11.39-36.55c0,0.3-0.12,0.66-0.36,0.9c-0.24,0.24-0.6,0.36-0.9,0.36c-0.36,0-0.66-0.12-0.9-0.36
	c-0.3-0.24-0.42-0.6-0.42-0.9c0-0.36,0.12-0.66,0.42-0.9c0.24-0.24,0.54-0.42,0.9-0.42c0.3,0,0.66,0.18,0.9,0.42
	C11.27-37.21,11.39-36.91,11.39-36.55z M37.43-8.47l0.78-0.78l0.78,0.78l-0.78,0.78L37.43-8.47z M33.41-12.49l0.78-0.78l1.56,1.56
	l-0.78,0.78L33.41-12.49z"/>
<path class="st2" d="M15.89-16.99l2.52-2.58l0.78,0.78l-2.58,2.58L15.89-16.99 M26.69-28.15l2.58-2.52l0.78,0.72l-2.58,2.58
	L26.69-28.15z M35.27-6.61l4.74-4.8c-0.6-0.54-1.38-0.84-2.22-0.84c-0.9,0-1.74,0.3-2.4,0.96c-0.66,0.66-1.02,1.5-1.02,2.4
	C34.37-8.05,34.73-7.27,35.27-6.61z M40.79-11.41l-5.52,5.52l-0.24-0.18c0,0,0,0,0-0.06c-0.78-0.72-1.2-1.68-1.2-2.76
	c0-1.02,0.42-2.04,1.2-2.76c0.72-0.78,1.68-1.2,2.76-1.2c1.02,0,2.04,0.42,2.76,1.2c0.06,0,0.06,0,0.06,0L40.79-11.41z"/>
<path class="st2" d="M33.77-27l11.22-11.28l-7.08-7.08L26.63-34.08L33.77-27 M46.55-38.29L33.77-25.44l-8.7-8.64l12.84-12.84
	L46.55-38.29z"/>
<path class="st2" d="M8.39-16.63l0.78-0.78l7.86,7.92l-0.72,0.78L8.39-16.63 M4.43-12.19l0.78-0.78l7.86,7.86l-0.78,0.78L4.43-12.19
	z M30.95-29.59l12.06-12l0.78,0.78l-12.06,12L30.95-29.59z M27.95-32.05l12-12l0.78,0.78l-12,12L27.95-32.05z"/>
<path class="st2" d="M8.75-1.51l11.22-11.28l-7.08-7.14L1.61-8.65L8.75-1.51 M21.53-12.79L8.75,0.05l-8.7-8.7l12.84-12.78
	L21.53-12.79z"/>
<path class="st2" d="M5.93-4.09l12.06-12.06l0.78,0.78L6.71-3.31L5.93-4.09 M2.93-6.55l12-12.06l0.78,0.78l-12,12.06L2.93-6.55z"/>
<path class="st2" d="M135.11-14.83l-2.7-10.08l-1.08,0.3l2.7,10.08L135.11-14.83 M133.19-26.29l3.3,12.24l-3.24,0.84l-3.24-12.18
	L133.19-26.29z M158.81-21.19l-2.7-10.08l-20.88,5.58l2.7,10.14L158.81-21.19z M156.89-32.59l3.24,12.18l-22.98,6.18l-3.3-12.24
	L156.89-32.59z"/>
<path class="st2" d="M160.13-22.8l-2.04-7.74l-0.6,0.18l2.04,7.74L160.13-22.8 M158.87-31.86l2.64,9.84l-2.76,0.72l-2.64-9.84
	L158.87-31.86z M136.49-16.44l-2.1-7.74l-0.6,0.18l2.1,7.74L136.49-16.44z M135.17-25.5l2.64,9.84l-2.7,0.72l-2.64-9.84L135.17-25.5
	z M136.13-41.58l-0.24-1.08l10.74-2.88l0.3,1.02L136.13-41.58z M137.57-35.88l-0.24-1.02l10.74-2.88l0.3,1.02L137.57-35.88z
	 M138.71-24.24l-0.3-1.08l14.64-3.9l0.3,1.02L138.71-24.24z"/>
<path class="st2" d="M129.83-18.24l-0.3-1.08l2.16-0.54l0.3,1.02L129.83-18.24 M161.57-24.07l-1.68-6.06l-0.6,0.12l1.62,6.12
	L161.57-24.07z M160.67-31.51l2.22,8.22l-2.7,0.72l-2.22-8.22L160.67-31.51z"/>
<path class="st2" d="M128.51-17.95c0.18,0.12,0.36,0.12,0.6,0.06c0.18,0,0.3-0.12,0.42-0.3c0.12-0.18,0.12-0.36,0.06-0.6
	c-0.06-0.18-0.18-0.3-0.3-0.42c-0.18-0.12-0.42-0.12-0.6-0.06c-0.18,0.06-0.36,0.18-0.42,0.36c-0.12,0.12-0.12,0.36-0.06,0.54
	C128.21-18.19,128.33-18.01,128.51-17.95 M129.53-19.69c0.3,0.18,0.54,0.48,0.6,0.78c0.12,0.36,0.06,0.66-0.12,0.96
	c-0.18,0.3-0.48,0.54-0.78,0.6c-0.36,0.12-0.66,0.06-0.96-0.12c-0.3-0.18-0.54-0.42-0.6-0.78c-0.12-0.3-0.06-0.66,0.12-0.96
	c0.18-0.3,0.42-0.48,0.78-0.6C128.87-19.87,129.23-19.87,129.53-19.69z M166.91-28.21l-0.3-1.02l1.02-0.3l0.3,1.08L166.91-28.21z
	 M161.39-26.71l-0.3-1.08l2.16-0.54l0.3,1.02L161.39-26.71z"/>
<path class="st2" d="M148.73-13.75l-0.96-3.54l1.08-0.24l0.9,3.48L148.73-13.75 M144.53-28.75l-0.96-3.48l1.08-0.3l0.9,3.54
	L144.53-28.75z M167.39-25.39l-1.74-6.54c-0.78,0.3-1.44,0.78-1.86,1.56c-0.48,0.78-0.6,1.68-0.36,2.52c0.24,0.9,0.78,1.62,1.56,2.1
	C165.77-25.33,166.55-25.21,167.39-25.39z M166.01-32.59l2.04,7.56l-0.3,0.12c-1.02,0.3-2.1,0.12-3-0.36
	c-0.9-0.54-1.56-1.38-1.86-2.4c-0.24-1.02-0.12-2.1,0.42-3c0.54-0.9,1.38-1.56,2.4-1.86c0,0,0,0,0.06,0L166.01-32.59z"/>
<path class="st2" d="M149.03-34.26l-4.14-15.36l-9.72,2.58l4.14,15.42L149.03-34.26 M145.67-51.01l4.68,17.52l-11.82,3.18
	l-4.68-17.52L145.67-51.01z"/>
<path class="st2" d="M145.31-7.08l-0.3-1.08l10.8-2.88l0.3,1.02L145.31-7.08 M147.17-1.44l-0.3-1.08l10.74-2.88l0.3,1.08
	L147.17-1.44z M145.37-33.12l-4.38-16.44l1.02-0.3l4.44,16.44L145.37-33.12z M141.77-31.74l-4.44-16.44l1.08-0.3l4.38,16.44
	L141.77-31.74z"/>
<path class="st2" d="M158.57,0.17l-4.14-15.42l-9.72,2.64l4.14,15.36L158.57,0.17 M155.21-16.57l4.68,17.52l-11.82,3.12l-4.68-17.46
	L155.21-16.57z"/>
<path class="st2" d="M154.97,1.25l-4.44-16.44l1.08-0.24l4.38,16.44L154.97,1.25 M151.31,2.69l-4.44-16.5l1.08-0.24l4.38,16.44
	L151.31,2.69z"/>
<path class="st2" d="M257.09-29.29l7.38-7.38l-0.78-0.84l-7.44,7.38L257.09-29.29 M266.03-36.67l-8.94,8.94l-2.34-2.4l8.94-8.94
	L266.03-36.67z M274.43-11.95l7.38-7.44l-15.3-15.24l-7.38,7.38L274.43-11.95z M283.37-19.39l-8.94,8.94l-16.86-16.8l8.94-8.94
	L283.37-19.39z"/>
<path class="st2" d="M276.47-11.59l5.7-5.7l-0.42-0.42l-5.7,5.64L276.47-11.59 M283.73-17.29l-7.26,7.2l-1.98-1.98l7.26-7.2
	L283.73-17.29z M259.19-28.93l5.64-5.7l-0.42-0.42l-5.7,5.64L259.19-28.93z M266.39-34.63l-7.2,7.26l-1.98-2.04l7.2-7.2
	L266.39-34.63z M280.79-41.83l0.78-0.78l7.86,7.92l-0.72,0.78L280.79-41.83z M276.53-37.69l0.78-0.78l7.86,7.92l-0.72,0.72
	L276.53-37.69z M267.05-30.91l0.78-0.78l10.74,10.74l-0.78,0.78L267.05-30.91z"/>
<path class="st2" d="M257.39-35.59l0.78-0.78l1.56,1.56l-0.78,0.78L257.39-35.59 M278.27-11.05l4.5-4.44l-0.48-0.48l-4.44,4.5
	L278.27-11.05z M284.27-15.49l-6,6l-1.98-1.98l6-6L284.27-15.49z"/>
<path class="st2" d="M256.49-36.55c0,0.18,0.06,0.36,0.18,0.48c0.18,0.18,0.36,0.24,0.54,0.24c0.18,0,0.36-0.06,0.54-0.24
	c0.12-0.12,0.18-0.3,0.18-0.48c0-0.24-0.06-0.42-0.18-0.54c-0.18-0.12-0.36-0.24-0.54-0.24c-0.18,0-0.36,0.12-0.54,0.24
	C256.55-36.97,256.49-36.79,256.49-36.55 M258.47-36.55c0,0.3-0.12,0.66-0.36,0.9c-0.24,0.24-0.54,0.36-0.9,0.36
	c-0.36,0-0.66-0.12-0.9-0.36c-0.24-0.24-0.36-0.6-0.36-0.9c0-0.36,0.12-0.66,0.36-0.9c0.24-0.24,0.54-0.42,0.9-0.42
	c0.36,0,0.66,0.18,0.9,0.42C258.35-37.21,258.47-36.91,258.47-36.55z M284.57-8.47l0.78-0.78l0.72,0.78l-0.78,0.78L284.57-8.47z
	 M280.49-12.49l0.78-0.78l1.62,1.56l-0.78,0.78L280.49-12.49z"/>
<path class="st2" d="M262.97-16.99l2.58-2.58l0.78,0.78l-2.58,2.58L262.97-16.99 M273.83-28.15l2.52-2.52l0.78,0.72l-2.52,2.58
	L273.83-28.15z M282.35-6.61l4.8-4.8c-0.6-0.54-1.44-0.84-2.28-0.84c-0.9,0-1.74,0.3-2.4,0.96c-0.6,0.66-0.96,1.5-0.96,2.4
	C281.51-8.05,281.81-7.27,282.35-6.61z M287.93-11.41l-5.58,5.52l-0.18-0.18c-0.06,0-0.06,0-0.06-0.06
	c-0.72-0.72-1.14-1.68-1.14-2.76c0-1.02,0.42-2.04,1.14-2.76c0.72-0.78,1.74-1.2,2.76-1.2c1.08,0,2.04,0.42,2.82,1.2L287.93-11.41z"
	/>
<path class="st2" d="M280.85-27l11.28-11.28l-7.14-7.08l-11.28,11.28L280.85-27 M293.63-38.29l-12.78,12.84l-8.64-8.64l12.78-12.84
	L293.63-38.29z"/>
<path class="st2" d="M255.47-16.63l0.78-0.78l7.92,7.92l-0.78,0.78L255.47-16.63 M251.51-12.19l0.78-0.78l7.92,7.86l-0.78,0.78
	L251.51-12.19z M278.09-29.59l12-12l0.78,0.78l-12.06,12L278.09-29.59z M275.03-32.05l12.06-12l0.78,0.78l-12.06,12L275.03-32.05z"
	/>
<path class="st2" d="M255.83-1.51l11.28-11.28l-7.14-7.14L248.69-8.65L255.83-1.51 M268.67-12.79L255.83,0.05l-8.64-8.7l12.78-12.78
	L268.67-12.79z"/>
<path class="st2" d="M253.07-4.09l12-12.06l0.78,0.78l-12,12.06L253.07-4.09 M250.01-6.55l12.06-12.06l0.78,0.78L250.79-5.77
	L250.01-6.55z"/>
<path class="st2" d="M255.95,101.69l2.7-10.08l-1.08-0.3l-2.7,10.08L255.95,101.69 M259.97,90.83l-3.24,12.18l-3.24-0.84l3.3-12.18
	L259.97,90.83z M279.59,108.05l2.76-10.08l-20.88-5.64l-2.76,10.14L279.59,108.05z M283.67,97.19l-3.3,12.18l-22.98-6.12l3.3-12.24
	L283.67,97.19z"/>
<path class="st2" d="M281.57,107.33l2.1-7.74l-0.6-0.18l-2.1,7.74L281.57,107.33 M284.99,98.81l-2.64,9.84l-2.7-0.72l2.64-9.84
	L284.99,98.81z M257.93,100.97l2.1-7.74l-0.6-0.18l-2.1,7.74L257.93,100.97z M261.35,92.45l-2.64,9.84l-2.7-0.72l2.64-9.84
	L261.35,92.45z M270.23,79.01l0.3-1.08l10.74,2.88l-0.3,1.08L270.23,79.01z M268.61,84.71l0.24-1.08l10.8,2.88l-0.3,1.08
	L268.61,84.71z M263.75,95.33l0.3-1.08l14.64,3.96l-0.24,1.02L263.75,95.33z"/>
<path class="st2" d="M253.07,96.05l0.24-1.02l2.22,0.6l-0.3,1.02L253.07,96.05 M283.43,106.91l1.62-6.12l-0.6-0.12l-1.62,6.12
	L283.43,106.91z M286.37,100.07l-2.16,8.22l-2.7-0.78l2.16-8.22L286.37,100.07z"/>
<path class="st2" d="M251.81,95.69c0.06,0.18,0.24,0.3,0.42,0.36c0.18,0.06,0.36,0,0.54-0.06c0.18-0.12,0.3-0.24,0.36-0.48
	c0.06-0.18,0-0.36-0.06-0.54c-0.12-0.18-0.3-0.3-0.48-0.36c-0.18,0-0.36,0-0.54,0.12c-0.18,0.06-0.3,0.24-0.36,0.42
	S251.69,95.57,251.81,95.69 M253.55,94.73c0.12,0.24,0.18,0.6,0.12,0.96c-0.12,0.3-0.3,0.6-0.6,0.78c-0.3,0.18-0.66,0.18-0.96,0.12
	c-0.36-0.12-0.6-0.3-0.78-0.6c-0.18-0.3-0.24-0.66-0.12-0.96c0.06-0.36,0.3-0.6,0.54-0.78c0.3-0.18,0.66-0.24,1.02-0.12
	C253.07,94.19,253.37,94.43,253.55,94.73z M290.15,106.01l0.3-1.02l1.02,0.24l-0.3,1.08L290.15,106.01z M284.63,104.51l0.3-1.02
	l2.16,0.6l-0.3,1.02L284.63,104.51z"/>
<path class="st2" d="M267.17,109.43l0.96-3.54l1.02,0.3l-0.9,3.48L267.17,109.43 M271.01,94.37l0.96-3.54l1.02,0.3l-0.9,3.48
	L271.01,94.37z M289.19,108.71l1.74-6.54c-0.84-0.18-1.68-0.06-2.4,0.36c-0.78,0.48-1.32,1.2-1.56,2.04c-0.24,0.9-0.12,1.8,0.3,2.58
	C287.69,107.87,288.35,108.41,289.19,108.71z M291.59,101.75l-2.04,7.62l-0.3-0.06c0,0,0-0.06-0.06-0.06
	c-1.02-0.24-1.86-0.9-2.34-1.8c-0.54-0.9-0.72-1.98-0.42-3c0.3-1.02,0.9-1.86,1.86-2.4c0.9-0.48,1.92-0.66,2.94-0.36
	c0.06,0,0.06,0,0.06,0L291.59,101.75z"/>
<path class="st2" d="M277.67,91.79l4.14-15.36l-9.72-2.64l-4.14,15.42L277.67,91.79 M283.13,75.65l-4.68,17.52l-11.82-3.18
	l4.68-17.52L283.13,75.65z"/>
<path class="st2" d="M260.93,113.45l0.24-1.02l10.8,2.88l-0.3,1.08L260.93,113.45 M259.67,119.27l0.3-1.02l10.74,2.88l-0.24,1.02
	L259.67,119.27z M274.01,91.01l4.38-16.5l1.08,0.3l-4.44,16.44L274.01,91.01z M270.11,90.35l4.44-16.44l1.02,0.3l-4.38,16.44
	L270.11,90.35z"/>
<path class="st2" d="M268.73,126.41l4.14-15.42l-9.72-2.58l-4.14,15.36L268.73,126.41 M274.19,110.21l-4.68,17.52l-11.82-3.18
	l4.68-17.52L274.19,110.21z"/>
<path class="st2" d="M265.07,125.57l4.38-16.44l1.08,0.24l-4.44,16.44L265.07,125.57 M261.23,124.91l4.38-16.44l1.08,0.3
	l-4.44,16.44L261.23,124.91z"/>
<path class="st2" d="M257.09,217.79l7.38-7.38l-0.78-0.84l-7.44,7.44L257.09,217.79 M266.03,210.41l-8.94,8.94l-2.34-2.34l8.94-8.94
	L266.03,210.41z M274.43,235.13l7.38-7.38l-15.3-15.3l-7.38,7.38L274.43,235.13z M283.37,227.75l-8.94,8.94l-16.86-16.86l8.94-8.94
	L283.37,227.75z"/>
<path class="st2" d="M276.47,235.49l5.7-5.7l-0.42-0.42l-5.7,5.7L276.47,235.49 M283.73,229.79l-7.26,7.26l-1.98-1.98l7.26-7.26
	L283.73,229.79z M259.19,218.15l5.64-5.64l-0.42-0.48l-5.7,5.7L259.19,218.15z M266.39,212.51l-7.2,7.2l-1.98-1.98l7.2-7.2
	L266.39,212.51z M280.79,205.31l0.78-0.78l7.86,7.86l-0.72,0.78L280.79,205.31z M276.53,209.39l0.78-0.78l7.86,7.92l-0.72,0.78
	L276.53,209.39z M267.05,216.17l0.78-0.78l10.74,10.74l-0.78,0.78L267.05,216.17z"/>
<path class="st2" d="M257.39,211.49l0.78-0.78l1.56,1.62l-0.78,0.72L257.39,211.49 M278.27,236.09l4.5-4.5l-0.48-0.42l-4.44,4.44
	L278.27,236.09z M284.27,231.59l-6,6l-1.98-1.98l6-6L284.27,231.59z"/>
<path class="st2" d="M256.49,210.53c0,0.18,0.06,0.36,0.18,0.54c0.18,0.12,0.36,0.18,0.54,0.18c0.18,0,0.36-0.06,0.54-0.18
	c0.12-0.18,0.18-0.36,0.18-0.54c0-0.18-0.06-0.36-0.18-0.54c-0.18-0.12-0.36-0.18-0.54-0.18c-0.18,0-0.36,0.06-0.54,0.18
	C256.55,210.17,256.49,210.35,256.49,210.53 M258.47,210.53c0,0.36-0.12,0.66-0.36,0.9c-0.24,0.24-0.54,0.36-0.9,0.36
	c-0.36,0-0.66-0.12-0.9-0.36c-0.24-0.24-0.36-0.54-0.36-0.9c0-0.36,0.12-0.66,0.36-0.9c0.24-0.24,0.54-0.36,0.9-0.36
	c0.36,0,0.66,0.12,0.9,0.36C258.35,209.87,258.47,210.17,258.47,210.53z M284.57,238.67l0.78-0.78l0.72,0.72l-0.78,0.78
	L284.57,238.67z M280.49,234.59l0.78-0.78l1.62,1.62l-0.78,0.78L280.49,234.59z"/>
<path class="st2" d="M262.97,230.09l2.58-2.58l0.78,0.78l-2.58,2.58L262.97,230.09 M273.83,218.99l2.52-2.58l0.78,0.78l-2.52,2.58
	L273.83,218.99z M282.35,240.47l4.8-4.8c-0.6-0.54-1.44-0.84-2.28-0.84c-0.9,0-1.74,0.36-2.4,0.96c-0.6,0.66-0.96,1.5-0.96,2.4
	C281.51,239.03,281.81,239.87,282.35,240.47z M287.93,235.67l-5.58,5.58l-0.18-0.24c-0.06,0-0.06,0-0.06,0
	c-0.72-0.78-1.14-1.74-1.14-2.82c0-1.02,0.42-2.04,1.14-2.76s1.74-1.14,2.76-1.14c1.08,0,2.04,0.42,2.82,1.14c0,0,0,0,0,0.06
	L287.93,235.67z"/>
<path class="st2" d="M280.85,220.13l11.28-11.28l-7.14-7.14l-11.28,11.28L280.85,220.13 M293.63,208.85l-12.78,12.78l-8.64-8.64
	l12.78-12.78L293.63,208.85z"/>
<path class="st2" d="M255.47,230.51l0.78-0.78l7.92,7.86l-0.78,0.78L255.47,230.51 M251.51,234.89l0.78-0.78l7.92,7.92l-0.78,0.72
	L251.51,234.89z M278.09,217.55l12-12.06l0.78,0.78l-12.06,12.06L278.09,217.55z M275.03,215.09l12.06-12.06l0.78,0.78l-12.06,12.06
	L275.03,215.09z"/>
<path class="st2" d="M255.83,245.57l11.28-11.28l-7.14-7.08l-11.28,11.28L255.83,245.57 M268.67,234.29l-12.84,12.84l-8.64-8.64
	l12.78-12.84L268.67,234.29z"/>
<path class="st2" d="M253.07,242.99l12-12l0.78,0.78l-12,12L253.07,242.99 M250.01,240.53l12.06-12l0.78,0.78l-12.06,12
	L250.01,240.53z"/>
</svg>
