<?xml version="1.0" encoding="utf-8"?>
<!-- Generator: Adobe Illustrator 25.0.0, SVG Export Plug-In . SVG Version: 6.00 Build 0)  -->
<svg version="1.1" id="图层_1" xmlns="http://www.w3.org/2000/svg" xmlns:xlink="http://www.w3.org/1999/xlink" x="0px" y="0px"
	 viewBox="0 0 100.1 100.3" style="enable-background:new 0 0 100.1 100.3;" xml:space="preserve">
<style type="text/css">
	.st0{fill:#2C2C2C;}
	.st1{fill:#FFFFFF;}
</style>
<path class="st0" d="M50.1,98.6c-26.7,0-48.4-21.7-48.4-48.4S23.4,1.8,50.1,1.8s48.4,21.7,48.4,48.4S76.8,98.6,50.1,98.6z"/>
<path class="st0" d="M50.1,3.3c-25.8,0-46.9,21-46.9,46.9s21,46.9,46.9,46.9S97,76.1,97,50.2S75.9,3.3,50.1,3.3 M50.1,0.2
	c27.6,0,50,22.4,50,50s-22.4,50-50,50s-50-22.4-50-50S22.4,0.2,50.1,0.2z"/>
<path class="st1" d="M78.3,17.1c0-0.7-0.3-1.4-0.7-1.9c-0.5-0.7-1.1-1.2-1.8-1.6c-0.7-0.4-1.5-1-2.2-1.4c-1-0.3-1.6-0.4-2.2-0.4
	c-0.8,0-1.8,0.4-3,0.8c-0.5,0.4-1.1,0.5-1.6,0.8c-0.5,0.4-1.1,0.5-1.8,0.5c-4.6,0.7-9,1.2-13,1.5c-4.1,0.4-8.4,0.8-12.8,1.1
	c-0.5,0.1-1.2,0.1-1.8,0.1c-0.7,0-1.4,0.1-1.9,0.3c-1.2,0.4-1.8,1-1.8,1.6c0,1.5,1.1,2.9,3.7,4.2c0.4,0.4,1.1,0.5,2,0.8s2,0.4,3,0.4
	c1.1,0,2,0,3.1-0.3l3.8-0.4c1-0.1,2-0.3,3-0.4l2.2-0.4c0,3.9,0.1,8.1,0.4,12.5l0.4,12.8L55.8,59c0,3.4,0.1,6.1,0.1,7.6
	c0,1.1-0.1,2.4-0.3,3.9c-0.3,1.8-0.4,3.3-1,4.9c-0.5,1.6-1.1,3.1-2,4.2c-0.8,1.1-2.2,1.8-3.7,1.8c-1.1,0-2.2-0.3-3.1-0.8
	c-1.4-0.7-2.6-1.5-3.8-2.6c-1.5-1.2-3-2.6-4.2-4.1c-1.6-1.6-3-3.4-4.1-5.4c-0.8-1.2-1.6-2.6-2.2-3.9c-0.8-1.5-1.1-2.7-1.1-3.7
	c0-0.5,0.3-1.1,0.7-1.8c0.4-0.7,0.8-1.2,1.2-1.8l0.8-0.8l0.4-0.7v-0.7c0-0.4-0.1-0.8-0.4-1.1c-0.3-0.5-0.7-1-1.1-1.4
	c-0.5-0.4-1.1-0.8-1.6-1.1c-0.7-0.3-1.4-0.4-2-0.4c-2.3,0-3.9,1-5,2.6c-1.1,1.8-1.6,3.8-1.6,5.8c0,1.1,0.1,2.2,0.5,3.1
	c0.3,1.2,0.8,2.4,1.4,3.7c0.4,1.4,1,2.6,1.8,3.8c0.7,1.2,1.2,2.3,1.8,3c2.6,3.7,4.9,6.4,7.3,8.3c2.3,2,4.3,3.7,6.2,4.6
	c1.8,1.1,3.4,1.8,4.8,2c1,0.1,1.8,0.3,2.7,0.4c3.3,0,6-0.5,8.1-1.9c2-1.1,3.8-2.9,5-4.8c1.2-2.2,2-4.5,2.6-6.9
	c0.4-2.6,0.7-5.2,0.7-7.6c0-3.3-0.1-7.1-0.1-11.3L64,43l-0.3-12.1c-0.1-3.8-0.1-6.9-0.1-9.8c1,0,1.9-0.1,2.9-0.3
	c0.7,0,1.4-0.1,2-0.1l2-0.3c0.8,0,1.5-0.1,2.3-0.4c1.2-0.1,2.4-0.5,3.5-1.1C77.6,18.8,78.3,18.2,78.3,17.1L78.3,17.1z"/>
</svg>
